<?xml version="1.0" encoding="iso-8859-1"?>
<!-- Uploaded to: SVG Repo, www.svgrepo.com, Generator: SVG Repo Mixer Tools -->
<svg version="1.1" id="Layer_1" xmlns="http://www.w3.org/2000/svg" xmlns:xlink="http://www.w3.org/1999/xlink" 
	 viewBox="0 0 512 512" xml:space="preserve">
<g>
	<rect x="247.172" y="353.103" style="fill:#F09B41;" width="17.655" height="61.793"/>
	<path style="fill:#F09B41;" d="M225.988,97.103L256,58.517l30.013,38.586h22.367l-43.552-55.994V8.828
		C264.828,3.948,260.879,0,256,0c-4.879,0-8.828,3.948-8.828,8.828v32.281l-43.551,55.994H225.988z"/>
</g>
<circle style="fill:#FFB450;" cx="256" cy="423.724" r="17.655"/>
<g>
	<path style="fill:#FFCF65;" d="M253.035,441.621c-8.681,1.412-14.69,9.564-14.69,18.358v43.193c0,4.875,3.953,8.828,8.828,8.828
		h17.655c4.875,0,8.828-3.953,8.828-8.828v-44.138C273.655,448.311,264.096,439.822,253.035,441.621z"/>
	<path style="fill:#FFCF65;" d="M335.448,114.759l14.671-29.344c1.37-2.741-0.622-5.966-3.688-5.966H165.568
		c-3.065,0-5.058,3.225-3.688,5.966l14.671,29.344l-17.655,35.31l17.655,35.31l-17.655,35.31L176.552,256l-17.655,35.31
		l17.655,35.31l-14.671,29.344c-1.37,2.741,0.622,5.966,3.688,5.966h180.865c3.065,0,5.058-3.225,3.688-5.966l-14.673-29.344
		l17.655-35.31L335.448,256l17.655-35.31l-17.655-35.31l17.655-35.31L335.448,114.759z"/>
</g>
<g>
	<path style="fill:#FFB450;" d="M335.448,114.759H176.552L161.88,85.415c-1.37-2.741,0.622-5.966,3.688-5.966h180.865
		c3.065,0,5.058,3.225,3.688,5.966L335.448,114.759z"/>
	<polygon style="fill:#FFB450;" points="335.448,185.379 176.552,185.379 158.897,150.069 353.103,150.069 	"/>
	<polygon style="fill:#FFB450;" points="335.448,256 176.552,256 158.897,220.69 353.103,220.69 	"/>
	<polygon style="fill:#FFB450;" points="335.448,326.621 176.552,326.621 158.897,291.31 353.103,291.31 	"/>
</g>
</svg>